<?xml version="1.0" encoding="UTF-8" standalone="no"?>
<!DOCTYPE svg PUBLIC "-//W3C//DTD SVG 1.1//EN" "http://www.w3.org/Graphics/SVG/1.1/DTD/svg11.dtd">
<svg width="100%" height="100%" viewBox="0 0 2049 762" version="1.1" xmlns="http://www.w3.org/2000/svg" xmlns:xlink="http://www.w3.org/1999/xlink" xml:space="preserve" xmlns:serif="http://www.serif.com/" style="fill-rule:evenodd;clip-rule:evenodd;stroke-linejoin:round;stroke-miterlimit:2;">
    <rect id="Artboard1" x="0" y="0" width="2048.39" height="761.817" style="fill:none;"/>
    <g id="Artboard11" serif:id="Artboard1">
        <g id="Layer-1" serif:id="Layer 1" transform="matrix(4.16667,0,0,4.16667,0,0)">
            <g transform="matrix(1,0,0,1,478.964,34.4682)">
                <path d="M0,19.041C-5.258,19.041 -9.521,14.779 -9.521,9.52C-9.521,4.262 -5.258,0 0,0C5.259,0 9.521,4.262 9.521,9.52C9.521,14.779 5.259,19.041 0,19.041M0,-2.89C-6.854,-2.89 -12.41,2.667 -12.41,9.52C-12.41,16.375 -6.854,21.931 0,21.931C6.854,21.931 12.41,16.375 12.41,9.52C12.41,2.667 6.854,-2.89 0,-2.89" style="fill:rgb(240,80,45);fill-rule:nonzero;"/>
            </g>
            <g transform="matrix(1,0,0,1,0.24,139.274)">
                <path d="M0,-94.705L18.135,-94.705C22.833,-94.705 26.864,-93.021 30.225,-89.667C33.578,-86.307 35.262,-82.277 35.262,-77.578L35.262,39.292L0,39.292L0,-94.705ZM0,-133.997L18.135,-133.997C22.833,-133.997 26.864,-132.313 30.225,-128.96C33.578,-125.599 35.262,-121.569 35.262,-116.87L35.262,-106.291L0,-106.291L0,-133.997Z" style="fill:rgb(240,80,45);fill-rule:nonzero;"/>
            </g>
            <g transform="matrix(1,0,0,1,50.5506,58.171)">
                <path d="M0,66.494L35.262,66.494C36.6,76.569 40.465,83.621 46.848,87.651C53.563,92.358 62.795,94.704 74.554,94.704C84.959,94.704 92.854,92.862 98.23,89.162C103.598,85.471 106.29,80.095 106.29,73.042C106.29,62.298 91.178,53.57 60.953,46.848L59.946,46.344L55.916,45.336C38.788,41.645 27.367,37.781 21.661,33.75C14.939,30.058 10.24,24.683 7.556,17.63C4.195,11.585 2.519,3.864 2.519,-5.542C2.519,-21.992 8.225,-34.924 19.646,-44.33C31.059,-53.398 47.683,-57.931 69.517,-57.931C89.997,-57.931 105.787,-53.224 116.869,-43.827C128.282,-33.413 134.327,-19.812 135.004,-3.023L114.854,-3.023C107.125,-3.023 101.583,-6.549 98.23,-13.602C96.546,-16.955 94.201,-19.812 91.178,-22.165C85.133,-26.526 76.9,-28.714 66.495,-28.714C56.419,-28.714 49.194,-26.864 44.833,-23.173C39.796,-19.474 37.277,-14.271 37.277,-7.557C37.277,1.511 47.014,8.232 66.495,12.593C72.201,14.277 76.396,15.285 79.088,15.615C85.133,17.63 90.422,19.228 94.956,20.401C99.49,21.582 103.094,22.503 105.787,23.172C110.485,25.187 115.185,27.202 119.892,29.217C126.605,33.247 131.808,38.457 135.507,44.832C139.199,51.885 141.048,59.615 141.048,68.005C141.048,86.14 135.004,100.244 122.914,110.32C110.824,119.725 93.697,124.425 71.532,124.425C48.69,124.425 31.562,119.56 20.15,109.816C7.722,100.079 1.007,85.636 0,66.494" style="fill:rgb(240,80,45);fill-rule:nonzero;"/>
            </g>
            <g transform="matrix(1,0,0,1,328.346,181.084)">
                <path d="M0,-136.515L0,-57.931C0,-34.081 -6.219,-18.466 -18.639,-11.082C-31.067,-3.692 -44.669,0 -59.442,0C-73.885,-0.677 -87.069,-4.699 -98.987,-12.09C-110.911,-19.473 -116.869,-34.758 -116.869,-57.931L-116.869,-136.515L-81.607,-136.515L-81.607,-50.879C-81.607,-42.819 -79.261,-36.939 -74.555,-33.247C-69.855,-29.548 -64.479,-27.706 -58.435,-27.706C-52.39,-27.706 -46.936,-29.548 -42.063,-33.247C-37.199,-36.939 -34.76,-42.819 -34.76,-50.879L-34.76,-119.388C-34.76,-124.087 -33.169,-128.117 -29.974,-131.477C-26.785,-134.831 -22.669,-136.515 -17.632,-136.515L0,-136.515Z" style="fill:rgb(240,80,45);fill-rule:nonzero;"/>
            </g>
            <g transform="matrix(1,0,0,1,465.006,41.5459)">
                <path d="M0,137.02L-17.631,137.02C-22.669,137.02 -26.785,135.43 -29.973,132.234C-33.169,129.046 -34.759,124.93 -34.759,119.892L-34.759,51.383C-34.759,43.323 -37.199,37.451 -42.063,33.751C-46.936,30.061 -52.39,28.21 -58.435,28.21C-64.479,28.21 -69.855,30.061 -74.554,33.751C-79.261,37.451 -81.606,43.323 -81.606,51.383L-81.606,137.02L-116.869,137.02L-116.869,58.435C-116.869,35.602 -110.911,20.324 -98.986,12.595C-87.069,4.874 -73.886,0.678 -59.442,0C-44.668,0 -31.066,3.866 -18.639,11.587C-6.219,19.317 0,34.933 0,58.435L0,137.02Z" style="fill:rgb(240,80,45);fill-rule:nonzero;"/>
            </g>
            <g transform="matrix(1,0,0,1,476.88,44.7397)">
                <path d="M0,-1.501L2.829,-1.501C3.443,-1.501 3.898,-1.626 4.194,-1.876C4.489,-2.126 4.637,-2.512 4.637,-3.035C4.637,-3.558 4.489,-3.944 4.194,-4.194C3.921,-4.467 3.511,-4.604 2.966,-4.604L0,-4.604L0,-1.501ZM-2.421,5.114L-2.421,-5.388C-2.421,-5.729 -2.302,-6.019 -2.063,-6.257C-1.824,-6.496 -1.535,-6.615 -1.193,-6.615L3.272,-6.615C4.546,-6.615 5.489,-6.342 6.104,-5.797C6.739,-5.229 7.058,-4.399 7.058,-3.308C7.058,-2.58 6.898,-1.979 6.58,-1.501C6.308,-1.046 5.876,-0.717 5.285,-0.512C5.808,-0.33 6.171,-0.057 6.376,0.306C6.58,0.647 6.705,1.227 6.751,2.045L6.819,3.443L6.819,3.887C6.819,4.046 6.83,4.193 6.854,4.33C6.921,4.739 7.058,5 7.263,5.114L4.603,5.114C4.489,4.887 4.421,4.648 4.398,4.398C4.353,4.035 4.33,3.784 4.33,3.648L4.296,2.386C4.25,1.704 4.114,1.215 3.887,0.919C3.637,0.67 3.193,0.544 2.557,0.544L0,0.544L0,5.114L-2.421,5.114Z" style="fill:rgb(240,80,45);fill-rule:nonzero;"/>
            </g>
        </g>
    </g>
</svg>
