<svg xmlns="http://www.w3.org/2000/svg" viewBox="0 0 440 440"><defs><style>.cls-1{fill:#4A4E54;}</style></defs><title>Asset 2</title><g id="Layer_2" data-name="Layer 2"><g id="Layer_1-2" data-name="Layer 1"><path class="cls-1" d="M40,40H0V0H40ZM140,0H100V40h40ZM240,0H200V40h40ZM340,0H300V40h40ZM440,0H400V40h40ZM40,100H0v40H40Zm100,0H100v40h40Zm100,0H200v40h40Zm100,0H300v40h40Zm100,0H400v40h40ZM40,200H0v40H40Zm100,0H100v40h40Zm100,0H200v40h40Zm100,0H300v40h40Zm100,0H400v40h40ZM40,300H0v40H40Zm100,0H100v40h40Zm100,0H200v40h40Zm100,0H300v40h40Zm100,0H400v40h40ZM40,400H0v40H40Zm100,0H100v40h40Zm100,0H200v40h40Zm100,0H300v40h40Zm100,0H400v40h40Z"></path></g></g></svg>
